<svg viewBox="0 0 512 512" version="1.1" xmlns="http://www.w3.org/2000/svg">
  <path d=" M 76.50 0.00 L 357.39 0.00 C 375.79 0.94 393.85 8.21 407.45 20.69 C 423.77 35.28 433.49 56.79 433.86 78.67 C 453.59 79.09 473.01 87.12 487.20 100.83 C 501.97 114.75 510.83 134.46 512.00 154.68 L 512.00 435.42 C 511.10 453.12 504.39 470.49 492.79 483.91 C 478.65 500.69 457.37 510.96 435.48 512.00 L 153.97 512.00 C 135.35 510.82 117.15 503.25 103.58 490.39 C 87.82 475.85 78.47 454.76 78.14 433.33 C 58.67 432.87 39.49 425.05 25.34 411.67 C 10.27 397.73 1.17 377.82 0.00 357.36 L 0.00 76.53 C 0.95 56.51 9.56 36.94 23.97 22.97 C 37.86 9.16 56.96 0.95 76.50 0.00 M 72.51 40.72 C 54.53 43.88 40.18 60.64 40.05 78.93 C 39.94 169.96 40.03 260.98 40.00 352.01 C 39.90 358.27 41.09 364.58 43.79 370.26 C 50.12 384.08 64.86 393.49 80.08 393.32 C 171.05 393.35 262.03 393.33 353.00 393.33 C 364.60 393.55 376.17 388.52 383.79 379.76 C 390.52 372.24 394.07 362.11 393.83 352.05 C 393.82 261.36 393.86 170.68 393.81 80.00 C 393.97 64.65 384.38 49.82 370.37 43.61 C 363.44 40.27 355.61 39.76 348.04 40.00 C 259.03 40.00 170.02 40.00 81.01 40.00 C 78.16 40.02 75.31 40.20 72.51 40.72 M 433.85 118.70 C 433.82 196.80 433.85 274.89 433.83 352.99 C 433.93 370.86 427.82 388.68 416.72 402.69 C 404.79 417.97 387.14 428.68 368.04 432.05 C 359.46 433.71 350.70 433.28 342.03 433.33 C 267.41 433.34 192.80 433.33 118.18 433.34 C 118.58 448.45 128.34 462.79 142.28 468.66 C 148.14 471.29 154.61 472.18 160.99 472.01 C 250.68 471.99 340.36 472.00 430.04 472.01 C 434.77 472.05 439.55 471.56 444.07 470.11 C 456.97 466.09 467.42 455.10 470.70 441.98 C 472.22 436.46 472.00 430.68 472.00 425.01 C 472.00 336.68 472.00 248.35 472.00 160.02 C 472.08 153.98 471.01 147.90 468.50 142.39 C 462.59 128.81 448.65 119.27 433.85 118.70 Z" />
</svg>
