<svg viewBox="0 0 512 512" version="1.1" xmlns="http://www.w3.org/2000/svg">
  <path d=" M 451.43 0.00 L 455.54 0.00 C 469.90 0.68 484.09 6.49 494.30 16.70 C 505.07 27.02 511.35 41.59 512.00 56.45 L 512.00 60.54 C 511.50 71.61 508.08 82.58 501.73 91.70 C 497.61 97.81 492.08 102.74 486.95 107.97 C 416.14 178.80 345.29 249.61 274.48 320.45 C 271.34 323.96 266.74 325.43 262.23 326.16 C 238.02 330.93 213.84 335.88 189.62 340.59 C 179.37 342.66 169.29 332.54 171.38 322.29 C 176.28 297.22 181.39 272.17 186.36 247.11 C 186.99 243.46 188.77 240.07 191.46 237.52 C 263.98 165.03 336.49 92.52 409.00 20.03 C 419.73 8.03 435.29 0.53 451.43 0.00 M 434.65 39.63 C 428.28 45.91 422.02 52.28 415.66 58.56 C 428.23 71.17 440.74 83.84 453.47 96.28 C 459.99 89.55 466.81 83.10 473.27 76.29 C 480.96 67.91 482.16 54.47 476.14 44.84 C 471.59 37.15 462.96 32.11 454.02 32.00 C 446.88 31.77 439.72 34.61 434.65 39.63 M 217.07 257.31 C 213.67 272.95 210.76 288.71 207.56 304.40 C 222.13 301.73 236.59 298.49 251.15 295.72 C 252.78 295.33 254.72 295.32 255.85 293.87 C 314.11 235.54 372.44 177.30 430.71 118.98 C 418.17 106.38 405.60 93.81 393.01 81.25 C 334.38 139.95 275.58 198.50 217.07 257.31 Z" />
  <path d=" M 15.37 104.45 C 26.36 92.30 42.61 85.16 58.99 85.28 C 119.01 85.25 179.04 85.28 239.06 85.27 C 243.73 85.11 248.49 86.86 251.63 90.38 C 255.98 94.87 257.23 101.98 254.66 107.67 C 252.18 113.35 246.24 117.39 240.00 117.26 C 179.65 117.29 119.30 117.23 58.95 117.29 C 47.97 117.05 37.39 124.36 33.68 134.68 C 31.73 139.54 31.98 144.86 32.00 149.99 C 32.01 251.01 31.98 352.03 32.01 453.06 C 31.56 467.10 43.89 479.92 57.96 479.90 C 159.99 479.98 262.02 479.90 364.05 479.95 C 368.76 480.06 373.61 479.88 378.01 477.98 C 387.96 474.07 394.87 463.73 394.65 453.03 C 394.68 394.70 394.66 336.37 394.66 278.04 C 394.70 273.54 394.19 268.70 396.46 264.60 C 399.46 258.62 406.46 255.03 413.07 256.14 C 420.66 257.15 426.79 264.32 426.65 271.98 C 426.69 330.64 426.65 389.31 426.67 447.97 C 427.75 465.00 421.82 482.51 409.59 494.58 C 399.55 504.87 385.62 510.88 371.35 512.00 L 55.73 512.00 C 42.12 511.03 28.76 505.63 18.79 496.22 C 7.68 486.06 1.00 471.49 0.00 456.51 L 0.00 140.57 C 0.98 127.28 6.28 114.26 15.37 104.45 Z" />
</svg>
