<svg viewBox="0 0 512 512" version="1.1" xmlns="http://www.w3.org/2000/svg">
  <path d=" M 185.02 55.05 C 202.58 41.14 224.60 32.96 246.99 32.11 C 259.47 31.79 272.11 31.74 284.33 34.67 C 311.72 40.71 336.25 58.18 351.22 81.86 C 362.07 98.81 367.91 118.87 367.98 138.99 C 368.03 156.65 367.98 174.31 368.00 191.98 C 387.30 191.80 405.84 204.44 412.67 222.49 C 416.03 230.55 416.18 239.40 416.00 248.00 C 416.00 294.67 416.00 341.35 416.00 388.03 C 416.09 404.27 411.83 420.53 403.61 434.55 C 392.77 453.25 375.11 467.90 354.66 474.93 C 344.83 478.38 334.40 480.01 324.00 480.00 C 278.34 479.99 232.68 480.01 187.02 479.99 C 166.99 479.97 147.05 473.09 131.28 460.72 C 113.93 447.30 101.67 427.45 97.63 405.88 C 96.12 398.34 95.89 390.64 96.00 382.98 C 96.00 335.65 95.99 288.32 96.00 241.00 C 95.96 234.20 97.17 227.37 99.89 221.13 C 107.10 203.77 125.22 191.87 144.00 191.98 C 144.01 178.99 144.00 166.00 144.00 153.01 C 144.05 142.98 143.63 132.88 145.28 122.95 C 149.28 96.36 163.85 71.61 185.02 55.05 M 191.13 94.07 C 181.41 106.89 176.02 122.91 176.01 138.99 C 175.99 156.66 176.00 174.33 176.00 192.00 C 229.33 192.00 282.67 192.00 336.00 192.00 C 335.99 174.30 336.02 156.61 335.99 138.91 C 335.91 121.73 329.73 104.65 318.76 91.42 C 307.79 78.01 292.02 68.65 275.01 65.40 C 266.11 63.57 256.98 63.97 247.95 64.09 C 225.77 64.90 204.38 76.30 191.13 94.07 M 141.22 224.25 C 133.80 225.40 127.88 232.40 128.02 239.91 C 127.98 289.28 128.02 338.65 128.00 388.01 C 127.84 399.74 131.29 411.47 137.74 421.26 C 148.35 437.64 167.48 448.05 187.00 447.99 C 233.33 447.99 279.66 448.03 325.98 447.97 C 349.24 447.79 371.35 432.41 379.74 410.75 C 382.62 403.54 384.09 395.78 384.00 388.01 C 383.99 338.65 384.03 289.30 383.98 239.95 C 384.15 231.49 376.56 223.81 368.07 224.02 C 295.04 223.98 222.00 224.02 148.97 224.00 C 146.38 224.01 143.78 223.87 141.22 224.25 Z" />
  <path d=" M 247.08 273.09 C 260.39 268.99 275.87 274.89 283.08 286.79 C 290.62 298.39 289.26 314.79 279.94 325.00 C 277.70 327.63 274.91 329.70 272.01 331.55 C 271.97 349.04 272.03 366.53 271.98 384.02 C 272.17 392.13 265.23 399.53 257.15 399.95 C 248.29 400.81 239.78 392.99 240.02 384.08 C 239.97 366.57 240.03 349.07 239.99 331.56 C 230.67 326.11 224.33 315.87 224.03 305.03 C 223.24 290.74 233.29 276.84 247.08 273.09 Z" />
</svg>
