<svg viewBox="0 0 512 512" version="1.1" xmlns="http://www.w3.org/2000/svg">
  <path d=" M 115.39 0.00 L 396.61 0.00 C 413.97 0.95 431.03 7.44 444.29 18.73 C 462.22 33.61 473.03 56.63 472.91 79.94 C 472.92 197.29 472.92 314.64 472.91 431.99 C 472.95 449.63 466.91 467.19 456.04 481.06 C 441.97 499.41 419.67 510.86 396.62 512.00 L 115.39 512.00 C 103.57 511.25 91.84 508.20 81.41 502.53 C 55.48 488.93 38.39 460.28 39.08 430.97 C 39.09 313.96 39.07 196.96 39.09 79.96 C 38.97 58.53 48.05 37.31 63.52 22.51 C 77.32 9.02 96.14 1.01 115.39 0.00 M 89.81 52.80 C 82.72 60.32 78.87 70.67 79.09 80.99 C 79.08 197.65 79.08 314.31 79.08 430.97 C 79.00 437.42 80.35 443.91 83.24 449.69 C 89.70 463.06 104.09 472.06 118.95 471.98 C 209.96 472.02 300.97 471.99 391.99 472.00 C 404.47 472.30 416.90 466.41 424.48 456.48 C 430.13 449.31 433.06 440.16 432.91 431.05 C 432.92 314.36 432.92 197.67 432.91 80.99 C 433.06 72.08 430.28 63.13 424.88 56.03 C 417.55 46.10 405.41 39.99 393.07 40.02 C 380.27 39.98 367.47 40.01 354.67 40.01 C 354.63 46.68 354.72 53.35 354.63 60.02 C 354.34 75.30 347.85 90.32 337.01 101.07 C 326.05 112.13 310.64 118.61 295.07 118.65 C 269.37 118.68 243.67 118.66 217.96 118.67 C 203.67 118.82 189.41 113.63 178.55 104.34 C 165.61 93.45 157.64 76.89 157.36 59.96 C 157.29 53.31 157.36 46.66 157.33 40.01 C 144.55 40.00 131.78 39.98 119.00 40.02 C 108.06 40.01 97.22 44.74 89.81 52.80 M 197.29 40.08 C 197.46 46.94 197.16 53.80 197.45 60.65 C 198.20 70.45 207.17 78.70 217.00 78.64 C 243.01 78.68 269.02 78.68 295.03 78.64 C 304.84 78.68 313.76 70.46 314.55 60.68 C 314.84 53.81 314.55 46.93 314.70 40.05 C 275.56 39.98 236.42 39.93 197.29 40.08 Z" />
  <path d=" M 171.36 197.58 C 173.50 196.89 175.76 196.67 178.01 196.66 C 230.03 196.67 282.04 196.67 334.06 196.66 C 340.86 196.44 347.62 199.92 351.33 205.63 C 355.55 211.84 355.75 220.45 351.85 226.86 C 348.27 233.07 341.15 236.91 334.01 236.67 C 281.66 236.65 229.31 236.70 176.97 236.64 C 168.02 236.65 159.69 229.86 157.84 221.11 C 155.35 211.30 161.65 200.39 171.36 197.58 Z" />
  <path d=" M 171.37 315.57 C 173.53 314.89 175.79 314.66 178.05 314.66 C 230.38 314.69 282.71 314.64 335.04 314.69 C 342.52 314.72 349.68 319.41 352.78 326.21 C 355.89 332.70 355.06 340.85 350.71 346.58 C 346.91 351.81 340.45 354.86 334.01 354.67 C 282.00 354.67 229.98 354.67 177.97 354.67 C 171.56 354.86 165.14 351.83 161.33 346.64 C 156.93 340.91 156.10 332.72 159.21 326.21 C 161.54 321.16 166.07 317.21 171.37 315.57 Z" />
</svg>
