<svg viewBox="0 0 512 512" version="1.1" xmlns="http://www.w3.org/2000/svg">
  <path d=" M 196.94 43.92 C 223.28 20.57 263.72 15.59 295.29 30.84 C 308.70 37.11 320.31 46.99 329.08 58.87 C 335.09 67.43 340.02 76.67 345.29 85.68 C 395.07 171.90 444.85 258.11 494.63 344.32 C 499.60 352.82 504.54 361.46 507.48 370.91 C 510.40 379.42 511.56 388.42 512.00 397.38 L 512.00 399.63 C 511.44 416.96 506.29 434.19 496.58 448.60 C 483.67 468.72 462.45 483.41 438.95 488.00 C 427.15 490.53 415.01 489.97 403.03 490.03 C 299.33 490.01 195.62 490.08 91.91 490.00 C 69.95 490.02 47.86 482.35 31.44 467.62 C 12.19 450.94 0.74 425.97 0.00 400.57 L 0.00 397.51 C 0.57 382.84 4.20 368.24 11.30 355.35 C 18.57 342.08 26.39 329.11 33.88 315.96 C 81.37 233.73 128.86 151.50 176.35 69.27 C 181.89 59.85 188.53 50.98 196.94 43.92 M 249.49 63.71 C 238.19 65.14 227.47 70.62 219.79 79.03 C 215.20 83.93 212.09 89.94 208.73 95.69 C 156.73 185.68 104.73 275.67 52.74 365.66 C 49.51 371.28 46.02 376.82 43.97 383.00 C 40.41 393.32 40.51 404.82 44.13 415.11 C 48.74 428.71 59.46 440.17 72.95 445.26 C 79.61 447.93 86.84 448.74 93.97 448.66 C 201.98 448.65 310.00 448.66 418.01 448.66 C 424.04 448.67 430.13 448.05 435.89 446.15 C 448.72 442.09 459.52 432.42 465.35 420.34 C 470.96 409.13 472.16 395.72 468.32 383.76 C 466.48 377.76 463.17 372.38 460.05 366.98 C 406.74 274.65 353.44 182.31 300.14 89.98 C 296.48 83.56 291.83 77.60 285.85 73.18 C 275.62 65.34 262.23 62.05 249.49 63.71 Z" />
  <path d=" M 249.17 166.32 C 260.50 163.19 273.42 168.72 278.88 179.14 C 281.88 184.91 282.60 191.58 282.09 197.99 C 279.85 232.98 277.87 267.99 275.83 303.00 C 275.52 307.63 276.10 312.33 275.22 316.92 C 274.02 323.06 269.83 328.60 264.06 331.13 C 257.61 333.98 249.62 333.22 243.98 328.92 C 239.49 325.62 236.82 320.24 236.38 314.74 C 234.10 278.50 232.47 242.21 229.95 205.98 C 229.59 199.66 228.47 193.21 230.11 186.97 C 232.24 177.37 239.60 168.99 249.17 166.32 Z" />
  <path d=" M 250.40 351.58 C 258.43 349.75 267.31 352.06 273.32 357.71 C 283.51 366.82 284.69 384.42 275.36 394.54 C 269.62 401.00 260.58 404.57 251.98 403.10 C 239.90 401.35 230.00 390.24 229.78 378.01 C 229.20 365.75 238.46 354.12 250.40 351.58 Z" />
</svg>
